<svg xmlns="http://www.w3.org/2000/svg" width="1200" height="420" viewBox="0 0 1200 420" role="img" aria-labelledby="title desc"><title id="title">Download. Set up. Add an account.</title><desc id="desc">Python is included. If Codex CLI is missing, install it with your approval. Click this card to open Windows downloads</desc><rect width="1200" height="420" rx="24" fill="#0d1726"/><g transform="translate(48 36) scale(0.84375)"><g xmlns="http://www.w3.org/2000/svg" fill="none" stroke="black" stroke-width="1" fill-rule="evenodd" stroke-linecap="square" stroke-linejoin="bevel">

<g fill="#101c2e" fill-opacity="1" stroke="none" transform="matrix(1,0,0,1,0,0)" font-family="Sans Serif" font-size="9" font-weight="400" font-style="normal">
<path vector-effect="none" fill-rule="evenodd" d="M2,18 C2,9.16344 9.16344,2 18,2 L46,2 C54.8366,2 62,9.16344 62,18 L62,46 C62,54.8366 54.8366,62 46,62 L18,62 C9.16344,62 2,54.8366 2,46 L2,18 Z " />
</g>

<g fill="none" stroke="#f5f8fc" stroke-opacity="1" stroke-width="5.5" stroke-linecap="round" stroke-linejoin="bevel" transform="matrix(1,0,0,1,0,0)" font-family="Sans Serif" font-size="9" font-weight="400" font-style="normal">
<path vector-effect="none" fill-rule="evenodd" d="M37,15.5 C24,11 12,22 16,36 C19,49 28,51 35,48 " />
</g>

<g fill="none" stroke="#f5f8fc" stroke-opacity="1" stroke-width="3.5" stroke-linecap="round" stroke-linejoin="round" transform="matrix(1,0,0,1,0,0)" font-family="Sans Serif" font-size="9" font-weight="400" font-style="normal">
<path vector-effect="none" fill-rule="evenodd" d="M36,38 L49,51 M41,51 L49,51 L49,43 " />
</g>

<g fill="#5ee5be" fill-opacity="1" stroke="none" transform="matrix(1,0,0,1,0,0)" font-family="Sans Serif" font-size="9" font-weight="400" font-style="normal">
<circle cx="45" cy="18" r="3.5" />
</g>

<g fill="#50bea4" fill-opacity="1" stroke="none" transform="matrix(1,0,0,1,0,0)" font-family="Sans Serif" font-size="9" font-weight="400" font-style="normal">
<circle cx="50" cy="26" r="3" />
</g>

<g fill="#398674" fill-opacity="1" stroke="none" transform="matrix(1,0,0,1,0,0)" font-family="Sans Serif" font-size="9" font-weight="400" font-style="normal">
<circle cx="51" cy="34" r="2.5" />
</g>
</g>
</g><g font-family="Segoe UI,Arial,sans-serif" fill="#f5f8fc"><text x="120" y="70" font-size="21" font-weight="600">QuotaCrew for Codex</text><text x="1152" y="68" font-size="13" fill="#a9b8cc" text-anchor="end" letter-spacing="2">WINDOWS</text><text x="48" y="138" font-size="40" font-weight="600">Download. Set up. Add an account.</text><text x="48" y="173" font-size="20" fill="#a9b8cc">Python is included. If Codex CLI is missing, install it with your approval.</text><rect x="48" y="202" width="352" height="122" rx="14" fill="#142235" stroke="#2b3d53"/><text x="70" y="237" fill="#5ee5be" font-size="13" letter-spacing="2">01</text><text x="70" y="268" font-size="20" font-weight="600">Download for Windows</text><text x="70" y="297" fill="#a9b8cc" font-size="16">Installer or portable ZIP</text><rect x="424" y="202" width="352" height="122" rx="14" fill="#142235" stroke="#2b3d53"/><text x="446" y="237" fill="#5ee5be" font-size="13" letter-spacing="2">02</text><text x="446" y="268" font-size="20" font-weight="600">Choose your preferences</text><text x="446" y="297" fill="#a9b8cc" font-size="16">CLI check and optional tour</text><rect x="800" y="202" width="352" height="122" rx="14" fill="#142235" stroke="#2b3d53"/><text x="822" y="237" fill="#5ee5be" font-size="13" letter-spacing="2">03</text><text x="822" y="268" font-size="20" font-weight="600">Add your account</text><text x="822" y="297" fill="#a9b8cc" font-size="16">Sign in and track your quota</text><text x="48" y="379" font-size="16" fill="#a9b8cc">Click this card to open Windows downloads</text><rect x="864" y="353" width="288" height="44" rx="22" fill="#5ee5be"/><text x="1008" y="381" text-anchor="middle" font-size="16" font-weight="600" fill="#0d1726">Download for Windows →</text></g></svg>
